<svg width="25" height="24" viewBox="0 0 25 24" fill="none" xmlns="http://www.w3.org/2000/svg">
<path d="M16.52 5.57002V6.07002H17.02H17.26C19.2613 6.07002 20.5079 6.52885 21.2191 7.31529C22.0053 8.18516 22.0499 9.36635 21.9727 10.3566C21.9674 10.3967 21.9644 10.4313 21.9624 10.4549L21.9619 10.4605C21.9594 10.4895 21.9583 10.4993 21.9568 10.5078L21.9544 10.5224L21.9528 10.5371L21.9031 11.0048L21.9028 11.0071L21.8858 11.1605C21.5221 11.4222 21.1496 11.6611 20.754 11.8847L20.7539 11.8846L20.7428 11.8913C20.7242 11.9024 20.7076 11.9129 20.6944 11.9214L20.6618 11.9423C20.6453 11.9527 20.6358 11.9581 20.6264 11.9628L20.6119 11.9701L20.5978 11.9783C18.8706 12.9874 16.959 13.6763 14.9802 13.9964L14.5898 14.0596L14.5613 14.454C14.53 14.8883 14.4227 15.2614 14.1548 15.5319C13.8917 15.7975 13.3873 16.05 12.37 16.05C11.3546 16.05 10.8547 15.7959 10.5933 15.5312C10.3255 15.2599 10.2186 14.8886 10.1778 14.4624L10.141 14.0783L9.76014 14.0165C7.90385 13.7152 6.07857 13.1031 4.4209 12.1919L4.42092 12.1918L4.41533 12.1888C4.26204 12.1071 4.13035 12.0365 4.01042 11.9594L3.9969 11.9507L3.98286 11.9429C3.69273 11.7818 3.41367 11.6054 3.13586 11.4224L3.05779 10.6026L3.05667 10.5909L3.05501 10.5793L3.04656 10.5201C2.94847 9.52036 2.95066 8.2483 3.78126 7.32498C4.49269 6.53852 5.72952 6.08002 7.74004 6.08002H7.98004H8.48004V5.58002V5.53002C8.48004 4.66039 8.49427 3.8797 8.87065 3.29411C9.21067 2.76508 9.94542 2.27002 11.74 2.27002H13.26C15.0556 2.27002 15.79 2.76312 16.1296 3.29069C16.5057 3.8748 16.52 4.65499 16.52 5.53002V5.57002ZM11.13 12.08H10.63V12.58V13.84L10.63 13.8635C10.63 14.0988 10.63 14.3274 10.6528 14.5186C10.6766 14.7188 10.7329 14.958 10.9082 15.1575C11.0874 15.3615 11.3256 15.4507 11.5532 15.4951C11.7767 15.5388 12.0484 15.55 12.36 15.55C12.6692 15.55 12.9395 15.5407 13.1609 15.5003C13.3856 15.4593 13.6271 15.3749 13.8095 15.1702C13.988 14.97 14.0438 14.7275 14.0674 14.526C14.0901 14.3325 14.0901 14.0987 14.09 13.854L14.09 13.83V12.58V12.08H13.59H11.13ZM15.59 6.08002H16.09V5.58002V5.53002V5.50666C16.0901 5.10304 16.0901 4.72042 16.0499 4.39229C16.0085 4.05365 15.9184 3.71107 15.6922 3.42265C15.4599 3.12663 15.1325 2.94789 14.7346 2.84295C14.3452 2.74027 13.8581 2.70002 13.26 2.70002H11.74C11.1424 2.70002 10.6556 2.7396 10.2666 2.84126C9.86912 2.94513 9.54116 3.12257 9.3084 3.41826C9.08161 3.70638 8.99153 4.04914 8.95013 4.38816C8.91001 4.71672 8.91002 5.10054 8.91004 5.50653L8.91004 5.53002V5.57002V5.58002V6.08002H9.41004H15.59Z" fill="#F97316" stroke="#F97316"/>
<path opacity="0.4" d="M21.1021 12.8216L21.1022 12.8216L21.1072 12.8186L21.1822 12.7736L21.2481 12.7341C21.4299 12.635 21.608 12.5305 21.7828 12.4217L21.2523 18.1307C21.1512 19.0907 20.9116 19.9581 20.2569 20.5971C19.605 21.2333 18.4502 21.7299 16.3199 21.7299H8.69991C6.56968 21.7299 5.41459 21.2333 4.7626 20.598C4.10795 19.9601 3.8685 19.095 3.76745 18.1403L3.2537 12.6574C3.32925 12.702 3.40582 12.7461 3.48341 12.7894C3.63646 12.8867 3.79621 12.9719 3.93681 13.0469L3.94087 13.0491C5.5928 13.9662 7.39625 14.5928 9.2333 14.9218C9.31424 15.3555 9.48983 15.8269 9.87898 16.2186C10.3944 16.7373 11.1968 17.0299 12.3699 17.0299C13.5441 17.0299 14.3473 16.7341 14.8625 16.2106C15.2527 15.8142 15.4276 15.3368 15.5078 14.8983C17.4756 14.5284 19.3748 13.8309 21.1021 12.8216Z" fill="#F97316" stroke="#F97316"/>
</svg>
