<svg width="24" height="24" viewBox="0 0 24 24" fill="none" xmlns="http://www.w3.org/2000/svg">
<g clip-path="url(#clip0_2464_3020)">
<path opacity="0.4" d="M20.2001 2H9.53345V5.33333H12.2001V6.66667H3.53345C2.40011 6.66667 1.53345 7.53333 1.53345 8.66667V16C1.53345 17.1333 2.40011 18 3.53345 18H4.20011V21.4L8.40011 18H12.8668V13.3333H20.2001C21.3334 13.3333 22.2001 12.4667 22.2001 11.3333V4C22.2001 2.86667 21.3334 2 20.2001 2Z" fill="#F97316"/>
<path d="M18.8666 10V11.3333C17.9999 11.3333 17.0666 11.0667 16.2666 10.6667C15.4666 11.0667 14.5332 11.2667 13.5999 11.3333L13.5332 10C13.9999 10 14.4666 9.93333 14.9332 9.8C14.3332 9.2 13.9332 8.46667 13.7332 7.66667H15.1332C15.3332 8.26667 15.7332 8.73333 16.1999 9.13333C16.9332 8.53333 17.3999 7.66667 17.4666 6.66667H13.4666V5.33333H15.4666V4H16.7999V5.33333H18.9999L19.0666 6C19.1332 7.4 18.5999 8.8 17.5999 9.8C18.0666 9.93333 18.4666 10 18.8666 10Z" fill="#F97316"/>
<path fill-rule="evenodd" clip-rule="evenodd" d="M8.40016 14.2002L8.7335 15.2668H10.3335L8.1335 9.3335H6.5335L4.3335 15.2668H5.9335L6.3335 14.2002H8.40016ZM6.6665 13.0668L7.33317 11.0001L7.99984 13.0668H6.6665Z" fill="#F97316"/>
</g>
<defs>
<clipPath id="clip0_2464_3020">
<rect width="24" height="24" fill="white"/>
</clipPath>
</defs>
</svg>
