<svg width="16" height="16" viewBox="0 0 16 16" fill="none" xmlns="http://www.w3.org/2000/svg">
<path opacity="0.4" d="M14.1667 7.93327C14.1667 11.339 11.4058 14.0999 8.00004 14.0999C4.59428 14.0999 1.83337 11.339 1.83337 7.93327C1.83337 4.52751 4.59428 1.7666 8.00004 1.7666C11.4058 1.7666 14.1667 4.52751 14.1667 7.93327Z" fill="#F97316" stroke="#F97316"/>
<path d="M5 9.98643C5.10683 11.1771 6.09216 12.0221 7.59216 12.1314V13H8.34504V12.1314C9.98364 12.0036 11 11.1043 11 9.77429C11 8.63857 10.3164 7.98143 8.86622 7.61143L8.34504 7.47786V4.76214C9.15496 4.84071 9.7014 5.27214 9.83927 5.91643H10.9004C10.7806 4.77357 9.78874 3.95357 8.34504 3.86286V3H7.59216V3.88071C6.19249 4.045 5.23171 4.93214 5.23171 6.135C5.23171 7.17357 5.92902 7.90857 7.15255 8.21857L7.59288 8.33429V11.2136C6.76347 11.0921 6.19249 10.6421 6.05462 9.98643H5ZM7.44779 7.24643C6.6949 7.05857 6.29283 6.65714 6.29283 6.09214C6.29283 5.41786 6.80101 4.92 7.59216 4.78643V7.28286L7.44779 7.24643ZM8.59625 8.58357C9.52526 8.81429 9.93311 9.19714 9.93311 9.84714C9.93311 10.6307 9.33686 11.1529 8.34504 11.2321V8.52143L8.59625 8.58357Z" fill="#C54600"/>
</svg>
