<svg width="16" height="17" viewBox="0 0 16 17" fill="none" xmlns="http://www.w3.org/2000/svg">
<path opacity="0.4" d="M11.74 8.20512H13.6666C13.7571 8.20512 13.8333 8.28126 13.8333 8.37178V11.8651C13.8333 12.9325 13.4647 13.7235 12.9043 14.2498C12.339 14.7808 11.5395 15.0785 10.62 15.0785H5.37996C4.46041 15.0785 3.66089 14.7808 3.09559 14.2498C2.53525 13.7235 2.16663 12.9325 2.16663 11.8651V5.95845C2.16663 4.89111 2.53525 4.10002 3.09559 3.57374C3.66089 3.04281 4.46041 2.74512 5.37996 2.74512H8.20663C8.29715 2.74512 8.37329 2.82126 8.37329 2.91178V4.83845C8.37329 6.69459 9.88382 8.20512 11.74 8.20512Z" fill="#F97316" stroke="#F97316"/>
<path d="M11.6252 6.2853L11.6252 6.28528H11.62C10.8762 6.28528 10.2866 5.68938 10.2866 5.00528V2.84579C10.949 3.50908 11.8894 4.458 12.7184 5.29453C13.0799 5.65939 13.4203 6.00286 13.7072 6.29194C12.9964 6.2919 12.2059 6.29142 11.6252 6.2853ZM13.8866 6.79194C14.2666 6.79194 14.4666 6.34528 14.2 6.07861C13.8881 5.76457 13.496 5.36892 13.0749 4.94399C12.1998 4.06091 11.1994 3.05141 10.5333 2.38528C10.26 2.11194 9.78662 2.29861 9.78662 2.67861V5.00528C9.78662 5.97861 10.6133 6.78528 11.62 6.78528C12.2532 6.79194 13.1332 6.79194 13.8865 6.79194H13.8866Z" fill="#F97316" stroke="#F97316"/>
<path d="M9 10.0786H5C4.72667 10.0786 4.5 9.85195 4.5 9.57861C4.5 9.30528 4.72667 9.07861 5 9.07861H9C9.27333 9.07861 9.5 9.30528 9.5 9.57861C9.5 9.85195 9.27333 10.0786 9 10.0786Z" fill="#F97316"/>
<path d="M7.66667 12.7451H5C4.72667 12.7451 4.5 12.5185 4.5 12.2451C4.5 11.9718 4.72667 11.7451 5 11.7451H7.66667C7.94 11.7451 8.16667 11.9718 8.16667 12.2451C8.16667 12.5185 7.94 12.7451 7.66667 12.7451Z" fill="#F97316"/>
</svg>
