<svg width="25" height="24" viewBox="0 0 25 24" fill="none" xmlns="http://www.w3.org/2000/svg">
<path opacity="0.4" d="M13.3524 21.3856L13.3524 21.3856L16.5408 20.3261C16.5411 20.3261 16.5413 20.326 16.5416 20.3259C17.0189 20.1652 17.4835 19.7998 17.831 19.3186C18.1786 18.8373 18.3801 18.28 18.3801 17.7701V13.7661L14.7648 16.1379L13.3524 21.3856ZM13.3524 21.3856L13.3495 21.3866M13.3524 21.3856L13.3495 21.3866M13.3495 21.3866C13.137 21.4587 12.8276 21.5026 12.4964 21.5026C12.1647 21.5026 11.8591 21.4586 11.6534 21.3875L11.6534 21.3875M13.3495 21.3866L11.6534 21.3875M11.6534 21.3875L11.6478 21.3856M11.6534 21.3875L11.6478 21.3856M11.6478 21.3856L8.45823 20.3257M11.6478 21.3856L8.45823 20.3257M8.45823 20.3257C8.45821 20.3257 8.45819 20.3257 8.45817 20.3257M8.45823 20.3257L8.45817 20.3257M8.45817 20.3257C7.97615 20.165 7.51186 19.7998 7.16592 19.3192C6.82012 18.8388 6.62024 18.2816 6.62012 17.7706C6.62012 17.7704 6.62012 17.7702 6.62012 17.7701L6.62825 13.7614L10.2755 16.1379C10.2757 16.1381 10.276 16.1382 10.2763 16.1384C10.9155 16.5583 11.7315 16.7526 12.5201 16.7526C13.3089 16.7526 14.1251 16.5583 14.7644 16.1382L8.45817 20.3257Z" fill="#F97316" stroke="#F97316"/>
<path d="M14.2154 2.94786L14.2157 2.94811L20.205 6.87761C20.2052 6.87773 20.2053 6.87786 20.2055 6.87798C21.2609 7.57356 21.6132 8.83308 21.2725 9.93197L21.25 10.0043V10.0801V15.0001C21.25 15.1339 21.1339 15.2501 21 15.2501C20.8662 15.2501 20.75 15.1339 20.75 15.0001V11.9401V11.0134L19.9755 11.5222L18.6058 12.422L18.6055 12.4222L14.2158 15.302L14.2154 15.3023C13.7747 15.592 13.1611 15.7526 12.52 15.7526C11.879 15.7526 11.2654 15.592 10.8247 15.3023L10.823 15.3011L6.40298 12.4211L6.40251 12.4208L4.80335 11.3814C4.80317 11.3813 4.80299 11.3811 4.8028 11.381C3.17437 10.3174 3.17747 7.93177 4.80183 6.87973L4.80334 6.87874L10.8233 2.94874L10.8247 2.94786C11.2654 2.65815 11.879 2.49756 12.52 2.49756C13.1611 2.49756 13.7747 2.65815 14.2154 2.94786Z" fill="#F97316" stroke="#F97316"/>
</svg>
